<?xml version="1.0"?>
<svg version="1.1" xmlns="http://www.w3.org/2000/svg" width="400px" height="200px" style="border: dashed 2px #aaa"><path fill="#0189ed" d="M64.751953125,116.7890625l-1.44921875-4.7578125l-7.287109375,0l-1.44921875,4.7578125l-4.56640625,0l7.0546875-20.0703125l5.181640625,0l7.08203125,20.0703125l-4.56640625,0z M62.291015625,108.4765625q-2.009765625-6.466796875-2.2626953125-7.314453125t-0.3623046875-1.33984375q-0.451171875,1.75-2.583984375,8.654296875l5.208984375,0z M81.34646484375,105.564453125l7.9296875,0l0,10.36328125q-1.927734375,0.62890625-3.6298828125,0.8818359375t-3.4794921875,0.2529296875q-4.525390625,0-6.9111328125-2.6591796875t-2.3857421875-7.6357421875q0-4.83984375,2.7685546875-7.546875t7.6767578125-2.70703125q3.076171875,0,5.93359375,1.23046875l-1.408203125,3.390625q-2.1875-1.09375-4.552734375-1.09375q-2.748046875,0-4.40234375,1.845703125t-1.654296875,4.962890625q0,3.25390625,1.3330078125,4.9697265625t3.8759765625,1.7158203125q1.326171875,0,2.693359375-0.2734375l0-4.169921875l-3.787109375,0l0-3.52734375z"/><path fill="#" d=""/></svg>
