<?xml version="1.0"?>
<svg version="1.1" xmlns="http://www.w3.org/2000/svg" width="351px" height="241px" style=""><path fill="#0189ed" d="M143.03857421875,221.833984375l-8.7470703125-28.716796875l-43.98291015625,0l-8.7470703125,28.716796875l-27.5615234375,0l42.580078125-121.138671875l31.27490234375,0l42.7451171875,121.138671875l-27.5615234375,0z M128.18505859375,171.662109375q-12.13037109375-39.03173828125-13.656982421875-44.14794921875t-2.186767578125-8.0869140625q-2.72314453125,10.5625-15.59619140625,52.23486328125l31.43994140625,0z M243.19830566406,154.08544921875l47.861328125,0l0,62.5498046875q-11.63525390625,3.7958984375-21.908935546875,5.322509765625t-21.001220703125,1.526611328125q-27.31396484375,0-41.713623046875-16.050048828125t-14.399658203125-46.087158203125q0-29.2119140625,16.710205078125-45.55078125t46.334716796875-16.3388671875q18.56689453125,0,35.8134765625,7.4267578125l-8.49951171875,20.46484375q-13.203125-6.6015625-27.47900390625-6.6015625q-16.58642578125,0-26.5712890625,11.14013671875t-9.98486328125,29.95458984375q0,19.6396484375,8.045654296875,29.995849609375t23.394287109375,10.356201171875q8.00439453125,0,16.25634765625-1.650390625l0-25.16845703125l-22.85791015625,0l0-21.2900390625z"/><path fill="#" d=""/></svg>
