<?xml version="1.0"?>
<svg version="1.1" xmlns="http://www.w3.org/2000/svg" width="200px" height="170px" style=""><path fill="#0189ed" d="M85.611328125,120.9765625l-3.10546875-10.1953125l-15.615234375,0l-3.10546875,10.1953125l-9.78515625,0l15.1171875-43.0078125l11.103515625,0l15.17578125,43.0078125l-9.78515625,0z M80.337890625,103.1640625q-4.306640625-13.857421875-4.8486328125-15.673828125t-0.7763671875-2.87109375q-0.966796875,3.75-5.537109375,18.544921875l11.162109375,0z M121.17099609375,96.923828125l16.9921875,0l0,22.20703125q-4.130859375,1.34765625-7.7783203125,1.8896484375t-7.4560546875,0.5419921875q-9.697265625,0-14.8095703125-5.6982421875t-5.1123046875-16.3623046875q0-10.37109375,5.9326171875-16.171875t16.4501953125-5.80078125q6.591796875,0,12.71484375,2.63671875l-3.017578125,7.265625q-4.6875-2.34375-9.755859375-2.34375q-5.888671875,0-9.43359375,3.955078125t-3.544921875,10.634765625q0,6.97265625,2.8564453125,10.6494140625t8.3056640625,3.6767578125q2.841796875,0,5.771484375-0.5859375l0-8.935546875l-8.115234375,0l0-7.55859375z"/><path fill="#" d=""/></svg>
